<svg width="504" height="343" viewBox="0 0 504 343" fill="none" xmlns="http://www.w3.org/2000/svg"><g clip-path="url(#clip0_2_745)"><mask id="mask0_2_745" style="mask-type:luminance" maskUnits="userSpaceOnUse" x="0" y="0" width="504" height="343"><path d="M503.5.5H.5v342h503V.5Z" fill="#fff"/></mask><g mask="url(#mask0_2_745)"><path d="M148.4 332.5s-23.8-26.6-93-18.6c0 0 18.6 20.6 38.6 23.2l54.4-4.6Z" fill="url(#paint0_linear_2_745)"/><path d="M189 308s-41.8-43.2-127.7-57.2c0 0 26.6 59.7 84.8 81.7h80.5L189 307.9Z" fill="url(#paint1_linear_2_745)"/><path d="M82 265.5s71.2 40 105.4 67.8L82 265.5Z" fill="url(#paint2_linear_2_745)"/><path d="m187.4 334.2-.7-.2C153 306.6 82.1 266.7 81.4 266.3c-.6-.3-.7-.8-.4-1.4.2-.5.8-.6 1.3-.4.7.4 71.7 40.4 105.7 68 .4.4.5 1 .1 1.3-.1.3-.4.4-.7.4Z" fill="#9AB6F4"/><path d="M245 332.5s-60.6-109-138.5-136c0 0 22.6 98.8 111.8 138.7l26.8-2.7Z" fill="url(#paint3_linear_2_745)"/><path d="M226.7 332s-59.5-77.8-99.5-111l99.5 111Z" fill="url(#paint4_linear_2_745)"/><path d="M226.7 333c-.3 0-.5-.1-.8-.4-.5-.8-60-78.1-99.4-111-.4-.3-.5-.9-.1-1.3s1-.5 1.3-.1c39.6 32.8 99 110.4 99.7 111.2.3.4.3 1-.1 1.3-.2.3-.4.3-.6.3Z" fill="#9AB6F4"/><path d="M153.8 172S170.4 272.7 255 332.4h26.6c-.1 0-40-122-127.8-160.6Z" fill="url(#paint5_linear_2_745)"/><path d="M173.7 196.5s46 55.7 92.4 136l-92.4-136Z" fill="url(#paint6_linear_2_745)"/><path d="M266.3 333.6c-.4 0-.7-.2-.8-.6-46-79.3-92-135.3-92.5-135.9-.4-.4-.3-1 .2-1.3.4-.4 1-.3 1.3.1.4.6 46.5 56.7 92.6 136.2.3.5.1 1-.4 1.3l-.4.2Z" fill="#9AB6F4"/><path d="M400.7 332.5s23.8-26.6 93-18.6c0 0-18.6 20.6-38.6 23.2l-54.4-4.6Z" fill="url(#paint7_linear_2_745)"/><path d="M360 308s42-43.2 127.9-57.2c0 0-26.7 59.7-84.9 81.7h-80.4l37.5-24.6Z" fill="url(#paint8_linear_2_745)"/><path d="M467.2 265.5s-71.2 40-105.5 67.8l105.5-67.8Z" fill="url(#paint9_linear_2_745)"/><path d="m361.7 334.2.7-.2c33.8-27.4 104.7-67.3 105.3-67.7.6-.3.7-.8.5-1.4-.3-.5-.9-.6-1.4-.4-.7.4-71.6 40.4-105.6 68-.4.4-.6 1-.2 1.3.2.3.4.4.7.4Z" fill="#9AB6F4"/><path d="M304 332.5s60.7-109 138.6-136c0 0-22.6 98.8-111.7 138.7l-26.8-2.7Z" fill="url(#paint10_linear_2_745)"/><path d="M322.4 332S382 254.3 422 221l-99.5 111Z" fill="url(#paint11_linear_2_745)"/><path d="M322.4 333c.3 0 .6-.1.8-.4.6-.8 60-78.1 99.4-111 .4-.3.6-.9.2-1.3-.5-.4-1-.5-1.4-.1-39.6 32.8-99 110.4-99.7 111.2-.2.4-.2 1 .2 1.3.1.3.4.3.5.3Z" fill="#9AB6F4"/><path d="M395.3 172S378.7 272.7 294 332.4h-26.6c.1 0 40-122 127.8-160.6Z" fill="url(#paint12_linear_2_745)"/><path d="M375.3 196.5s-46 55.7-92.4 136l92.4-136Z" fill="url(#paint13_linear_2_745)"/><path d="M282.9 333.6c.4 0 .6-.2.8-.6 46-79.3 91.9-135.3 92.4-135.9.4-.4.3-1-.1-1.3-.4-.4-1.1-.3-1.4.1-.4.6-46.5 56.7-92.6 136.2-.2.5 0 1 .5 1.3l.4.2Z" fill="#9AB6F4"/><path d="M416.6 242.8H414v46.5h2.7v-46.5Z" fill="#F8FBFF"/><path d="M420 241h-2.7v46.4h2.7V241Z" fill="#E7EEF7"/><path d="M422.6 242.8H420v46.5h2.7v-46.5Z" fill="#F8FBFF"/><path d="M426 242.8h-2.7v46.5h2.7v-46.5Z" fill="#E7EEF7"/><path d="M428.6 241.6h-2.7v46.5h2.7v-46.5ZM436 268.7h-2.8v46.5h2.7v-46.5Z" fill="#F8FBFF"/><path d="M324.7 233s63.2-4.7 67.2 13.2c4 18-16 63.8-12.7 91h-59.9c.1-.1-9.8-75.5 5.4-104.1Z" fill="#5577E0"/><path d="M319.4 233s63.2-4.7 67.2 13.2c4 18-16 63.8-12.7 91H314c.1-.1-9.8-75.5 5.4-104.1Z" fill="url(#paint14_linear_2_745)"/><path d="M414 332.5V256h18.5V294l14 16v22.5H414Z" fill="#5577E0"/><path d="M436 311.3h-17.3v11.3h17.2v-11.3Z" fill="#E2EBFC"/><path d="M111.6 307.2c-1.3 0-2.3-1-2.3-2.3v-6c0-1.1 1-2.2 2.3-2.2 1.2 0 2.3 1 2.3 2.3v6c0 1.3-1.1 2.2-2.3 2.2ZM134.8 307.2c-1.2 0-2.3-1-2.3-2.3v-6c0-1.1 1-2.2 2.3-2.2 1.2 0 2.3 1 2.3 2.3v6c0 1.3-1 2.2-2.3 2.2Z" fill="#5577E0"/><path d="M105.2 302.6H135c9.4 0 10.6 8.7 18.6 10 8 1.3 10 8.2 11.7 19.7h-44.2l-16-29.7Z" fill="url(#paint15_linear_2_745)"/><path d="M95.3 333.8s3.9-31.2 9.9-31.2c5.4 0 8 10.6 18.6 12 10.6 1.3 13.6 17.9 13.6 17.9l-42.1 1.3Z" fill="#5577E0"/><path d="M143.4 310.4c4.9 3.5 7.5 8.4 5.7 10.8-1.8 2.5-7.2 1.6-12.1-1.9-5-3.5-7.5-8.4-5.7-10.8 1.7-2.5 7.2-1.7 12 1.9Z" fill="#E2EBFC"/><path d="M37.2 68.2c-.3 0-.5-.2-.8-.3a62.4 62.4 0 0 1-2.6-2.7c-.4-.4-.4-1.2.1-1.6.5-.4 1.3-.4 1.7 0l2.4 2.7c.4.4.4 1 0 1.6-.1.1-.5.3-.8.3ZM205.6 254.5c-.2 0-.6-.1-.8-.4-1.6-2-3.2-3.8-4.6-5.8-.4-.6-.3-1.3.3-1.5.5-.4 1.2-.3 1.5.2 1.3 2 2.8 3.8 4.5 5.6.4.4.4 1.2-.2 1.6a1 1 0 0 1-.7.3Zm-11-17c-.4 0-.8-.4-1-.8-1-2.3-2-4.6-2.6-6.9-.2-.5.1-1.2.6-1.3.6-.2 1.3 0 1.4.6a58 58 0 0 0 2.6 6.8c.3.6 0 1.2-.6 1.5h-.4Zm-5.4-19.8c-.5 0-1-.4-1-1-.4-2.3-.6-4.8-.6-7.2 0-.7.4-1.1 1-1.3.7 0 1.1.5 1.3 1.1.1 2.5.2 5 .5 7.2a1 1 0 0 1-1 1.2h-.2Zm-.1-20.4c-.7 0-1.3-.7-1.1-1.3.2-2.4.5-4.8 1-7.3 0-.5.6-1 1.1-1 .6.2 1.1.8 1 1.3l-1 7.2c0 .7-.5 1-1 1Zm3.6-20.1h-.2c-.6-.1-1-.8-.9-1.4a69 69 0 0 1 2-7c.2-.6.9-1 1.4-.7.6.1 1 .8.7 1.4l-2 7c0 .3-.4.7-1 .7Zm6.3-19.5c-.2 0-.3 0-.4-.2-.6-.2-.8-.8-.7-1.5l2.7-6.7c.3-.6 1-.9 1.5-.6.6.3.8 1 .6 1.5a234 234 0 0 0-2.8 6.8c0 .4-.4.7-1 .7Zm8-18.9-.4-.1c-.5-.3-.8-1-.5-1.5l3-6.7c.4-.5 1-.8 1.6-.5.5.3.8 1 .5 1.5a146 146 0 0 0-3.1 6.6c-.3.4-.7.7-1.1.7Zm9.1-18.3-.5-.1c-.6-.3-.8-1-.4-1.5l3.5-6.5c.3-.6 1-.7 1.5-.4.5.2.7 1 .4 1.5l-3.5 6.3a1 1 0 0 1-1 .7Zm10-17.9-.6-.1c-.6-.3-.7-1-.4-1.5l3.7-6.4c.2-.5 1-.7 1.5-.4.5.3.6 1 .4 1.5-1.3 2-2.5 4.2-3.7 6.4-.1.2-.6.5-1 .5ZM72.7 87.2c-.1 0-.1 0 0 0-2.6-.3-5-.9-7.5-1.5-.5-.2-.9-.9-.8-1.4.2-.5.8-1 1.4-.8 2.3.7 4.8 1 7 1.3.6.2 1 .7.9 1.3 0 .6-.4 1-1 1Zm13-.9c-.5 0-.9-.4-1-.8-.1-.5.3-1.2.8-1.3 2.3-.6 4.5-1.4 6.7-2.3.5-.3 1.2 0 1.5.5.2.5 0 1.2-.6 1.5-2.3 1-4.7 1.9-7 2.4h-.3Zm150.6-1.5h-.6c-.5-.4-.7-1-.4-1.6 1.2-2.1 2.2-4.3 3.1-6.5.3-.5 1-.8 1.5-.5.6.2.9 1 .6 1.5-1 2.1-2 4.4-3.3 6.6-.1.3-.5.5-1 .5ZM53.5 80.5l-.5-.1a60.3 60.3 0 0 1-6.3-4c-.5-.4-.7-1-.2-1.5.4-.5 1-.6 1.4-.2l6.2 4c.5.2.6.9.4 1.4-.3.3-.6.4-1 .4Zm50.3-3.8c-.3 0-.7-.1-.8-.4-.4-.4-.4-1.2.1-1.6l1.4-1.2 4-3.7c.4-.4 1-.4 1.6 0 .4.4.4 1 0 1.6l-4 3.7c-.5.4-1 1-1.5 1.3l-.8.3Zm139.8-11h-.3c-.5-.1-1-.7-.8-1.3.5-2.3 1-4.8 1-7 0-.8.6-1.2 1.3-1 .7 0 1 .5 1 1.2-.3 2.4-.7 4.9-1.3 7.3.2.6-.4.8-1 .8Zm-125.1-3.2c-.3 0-.5-.2-.8-.3-.4-.4-.4-1 0-1.6l5-5.3c.4-.4 1.1-.6 1.6 0 .5.4.6 1 0 1.6-1.7 2-3.3 3.7-5 5.3-.3.1-.5.3-.8.3Zm13.7-15.2a1 1 0 0 1-.6-.3c-.5-.4-.6-1-.2-1.6l1.1-1.2 3.8-4.2c.4-.4 1.1-.6 1.6-.2.5.4.6 1.1.2 1.7l-3.8 4.2-1.1 1.2c-.3.2-.6.4-1 .4Zm112.5-2c-.6 0-1.1-.3-1.1-.9-.3-2.3-.8-4.7-1.4-7-.1-.6.2-1.2.8-1.4.6-.1 1.3.2 1.4.8.7 2.5 1 5 1.5 7.4a1 1 0 0 1-1 1.2h-.2Zm-98.6-13c-.3 0-.5-.2-.8-.3-.4-.4-.4-1.1 0-1.7 1.8-1.9 3.5-3.5 5.3-5.1.4-.4 1.2-.4 1.6 0 .4.4.4 1.2 0 1.6-1.6 1.6-3.4 3.3-5.1 5.2l-1 .2Zm92.2-6.2c-.4 0-.8-.1-1-.5-1.2-2-2.6-4-4-6-.3-.5-.2-1.2.2-1.6.6-.4 1.2-.3 1.6.1 1.5 2 2.9 4.1 4.3 6.3.2.5 0 1.2-.4 1.5l-.7.2Zm-76.8-7.4c-.4 0-.7-.2-1-.4-.4-.6-.3-1.3.3-1.7 2-1.5 4-2.8 6.1-4.2.5-.2 1.2-.1 1.5.4.3.6.1 1.3-.4 1.5a58 58 0 0 0-6.5 4.4Zm63.2-7.8c-.3 0-.4 0-.7-.2-2-1.4-4-2.7-6.1-3.7-.6-.3-.8-1-.6-1.5.3-.5 1-.8 1.5-.5a45 45 0 0 1 6.4 4c.6.3.6 1 .3 1.4-.1.4-.4.5-.8.5ZM179 8.2c-.4 0-.8-.2-1-.6-.4-.6 0-1.3.5-1.5 2.1-1 4.4-2 6.8-2.9.5-.3 1.2.1 1.4.7.3.5 0 1.2-.6 1.5-2.3.8-4.7 1.7-6.7 2.7l-.4.1Zm27-5.1h-.2c-2.3-.4-4.8-.4-7-.4-.8 0-1.2-.4-1.3-1.1 0-.7.4-1.1 1-1.2 2.5-.2 5.1 0 7.6.4.5.1 1 .6.9 1.2 0 .7-.5 1-1 1ZM218.3 265.9c-.3 0-.4-.2-.7-.3l-3-2.3c-.5-.4-.5-1-.1-1.6.4-.6 1-.6 1.6-.2a24 24 0 0 0 3 2.2c.5.4.5 1.1.3 1.5-.4.5-.7.7-1.1.7ZM309 292.7c-.6 0-1.1-.5-1.1-1 0-.7.5-1.1 1-1.1 0 0 2.8 0 7.3-1.1.5-.2 1.2.2 1.3.8.2.5-.2 1.2-.8 1.3-4.7 1.1-7.6 1.1-7.7 1.1Zm20-5.4a1 1 0 0 1-1-.7c-.3-.5 0-1.2.5-1.5 2.2-1 4.4-2.1 6.6-3.4.5-.2 1.2 0 1.5.5.2.5.1 1.2-.4 1.4-2.2 1.4-4.5 2.5-6.7 3.6l-.6.1Zm17.3-11.4c-.2 0-.6-.1-.8-.4-.4-.4-.4-1.2.2-1.6l5.3-5c.4-.4 1-.4 1.6 0 .4.4.4 1 0 1.6l-5.4 5.1a2 2 0 0 1-.9.3Zm14-15.3-.6-.3c-.6-.4-.6-1-.3-1.5 1.4-1.9 2.9-3.9 4-6 .3-.6 1.2-.8 1.6-.5.5.3.7 1.1.4 1.5a100 100 0 0 1-4.2 6.3c-.2.4-.4.5-.8.5Zm10.8-17.8-.6-.1c-.5-.3-.8-1-.5-1.5 1-2.2 2-4.5 3.1-6.6.3-.6 1-.9 1.5-.6.6.3.8 1 .6 1.5-1 2.3-2 4.6-3.2 6.8 0 .3-.5.5-1 .5Zm7.9-19.4h-.4c-.6-.1-1-.8-.7-1.3.8-2.3 1.5-4.8 2-7 .2-.6.8-1 1.4-.9.5.2 1 .8.8 1.4l-2 7.2c-.3.4-.7.6-1.1.6Zm4.7-20.2h-.1c-.5-.1-1-.6-1-1.2.5-2.4.7-4.9 1-7.3 0-.7.5-1.1 1.2-1 .7 0 1.1.6 1 1.3l-1 7.4c0 .4-.5.8-1 .8Zm1.7-20.7a1 1 0 0 1-1.1-1.1v-.3c0-2.3 0-4.7-.2-7 0-.7.4-1.1 1.1-1.2.6 0 1.1.4 1.3 1v7.5c0 .7-.6 1-1.1 1Zm-1.4-20.8c-.5 0-1-.4-1-1l-1.2-7.2c-.1-.6.3-1.3 1-1.3.5 0 1.2.3 1.2 1 .4 2.6.8 5 1 7.5a1 1 0 0 1-.9 1.2l-.1-.2Zm-3.5-20.4c-.6 0-1-.4-1.1-1-.6-2.4-1.1-4.9-1.5-7.3-.1-.6.3-1.2.8-1.4.5-.1 1.2.3 1.4.8l1.6 7.4c.1.5-.3 1.2-.8 1.3l-.4.2Zm-4.5-20.4c-.6 0-1-.4-1.1-.8l-1.5-7.3c-.1-.6.3-1.2 1-1.4.5-.1 1.2.3 1.3 1l1.5 7.3c.1.5-.3 1.2-.8 1.4-.1-.2-.3-.2-.4-.2Zm-3.6-20.5c-.5 0-1-.4-1-1-.3-2.5-.4-4.8-.4-7V92c0-.6.5-1 1-1 .7 0 1.1.5 1.1 1v.3c0 2.2.2 4.5.4 7 .2.5-.2 1-1 1.1Zm.9-20.7h-.3c-.6-.1-1-.7-.8-1.4.7-2.7 1.5-5.1 2.6-7.1.2-.6 1-.9 1.5-.5.5.3.8 1 .4 1.5-1 2-1.8 4.2-2.3 6.8-.2.4-.7.7-1.1.7Zm39.3-9.5-.6-.1a58 58 0 0 0-6.7-3.2c-.5-.2-.8-.9-.5-1.4.3-.6 1-.9 1.5-.6 2.2 1 4.5 2 6.8 3.3.5.2.8 1 .4 1.5-.1.2-.5.5-1 .5Zm-27.1-6c-.5 0-1-.2-1-.8-.2-.5 0-1.2.7-1.3 2.3-.7 5-1 7.8-.7.7 0 1 .5 1 1.2s-.5 1-1.2 1c-2.5 0-4.9 0-6.9.8-.1-.2-.3-.2-.4-.2Z" fill="#5577E0"/><path d="M249 217s-10-3.9-18 7.4c-8 11.2-10.5 28.5-16.5 37.1-6 8.7-4.6 48.5-4.6 48.5s10.6-1.4 16.5-13.3c6-12 11.3-18 11.3-18l6.7-40.5 4.6-21.1Z" fill="url(#paint16_linear_2_745)"/><path d="M229 191.2s-.5-3.2 3.3-4.6c4-1.5-2.7-10-2.7-10S213 178 220 193.6c6.9 15.6 9-2.3 9-2.3Z" fill="url(#paint17_linear_2_745)"/><path d="M244.3 217s1.3 1.4-2.8 22c-4 20.6-11.2 31.2-2 41.8 9.2 10.6 16.6 30.5 13.3 54.4h88.5s-2.7-23.9-9.9-35.8l-14.7-83c-4.3-4.9-12-6.7-19.3-6.7.1 0-19.8 16-53.1 7.4Z" fill="url(#paint18_linear_2_745)"/><path d="M266.3 144s.7-12.6 10.6-13.3c10-.7 20.6 18.6 15.9 29.1-4.6 10.6-16 3.3-16 3.3L266.4 144Z" fill="url(#paint19_linear_2_745)"/><path d="M261.5 145.3s2-2 4.6-2c.7 0 9.4 3.2 14 14 4.7 10.5-2 9.9-2 9.9l-16.6-21.9Z" fill="#F9ECDC"/><path d="M231.9 187s-13.9-23.4-.8-37c8.5-9 21.9-10.4 32.6-5.5a28.7 28.7 0 0 1 16 18.6c4.7 17.2-2 26.6-2.7 39.2L232 187Z" fill="url(#paint20_linear_2_745)"/><path d="M272.3 185.7s3.9 18 10.6 21.3c6.6 3.3 14.6 2.7 14.6 2.7s-16.7 20-30.5 20c-14 0-18.7-12.6-18.7-12.6s7.4.6 11.3-2.7c4-3.3 0-6.7 0-6.7l12.7-22Z" fill="url(#paint21_linear_2_745)"/><path d="M231 185.7s16.5 25.3 25.9 26c9.4.6 15.4-13.3 15.4-26 0 0 5.3-8 1.3-13.3-4-5.2-6.6 3.3-4.6 10 0 0-6-1.4-9.4-9.4 0 0-14 3.2-24-4 0 .2 2.7 12.8-4.7 16.7Z" fill="url(#paint22_linear_2_745)"/><path d="M228.3 205.7s11.3 15.8 18.7 15.3c7.3-.7 12.6-5.3 9.4-10.6-3.3-5.3-10.7-10.6-13-8.5-2.3 2-2.3 5.3-2.3 5.3s-6.6-3.3-8-6c-1.5-2.8-4.8 4.5-4.8 4.5Z" fill="url(#paint23_linear_2_745)"/><path d="M221.7 218.3s-3.3 24.5-2.7 46.5c.6 22-1.4 42.4-9.4 45.8-8 3.3-12-3.2-16-8-3.9-4.6-2.6-17.2 1.4-36.4 4-19.3 14.7-44.5 17.3-53.7 0 0 1.4-13.3 7.3-18.6 6-5.3 8.7-4.6 10.7-2.7 2 2 6.6 8.6 6 10.5-.7 2-3.3-.6-4.7 1.4-1.3 2-5.3 16.5-10 15.2Z" fill="url(#paint24_linear_2_745)"/><path d="M331.4 299.2c-1.8 5-12.1 10.2-25.3 15-26.6 9.5-64.6 17-64.6 17-3.2 2.6-20.6.6-22-.8-1.3-1.3-12.6 2.7-15.9 0-3.3-2.7 7.3-9.3 14-9.3H239c17.8-5 40.3-17.7 55.1-26.7 9.6-6 16-10.5 16-10.5 3.3-21.3-4.5-25.2-9.8-49-3.7-16.5 5.3-27.3 15.3-20 9.8 7.5 22.9 64.1 15.8 84.3Z" fill="url(#paint25_linear_2_745)"/><path d="M331.4 299.2c-1.8 5-12.1 10.2-25.3 15-6.1-4.5-10-14.1-12-19.8 9.6-6 16-10.5 16-10.5 3.3-21.3-4.5-25.2-9.8-49-3.7-16.5 5.3-27.3 15.3-20 9.8 7.5 22.9 64.1 15.8 84.3Z" fill="url(#paint26_linear_2_745)"/><path d="M503.5 332.5H.5v9.9h503v-10ZM335.6 79a19.8 19.8 0 1 0-39.2-6.4 19.8 19.8 0 0 0 39.2 6.3Z" fill="#E2EBFC"/><path d="M320.5 70.3s-3 1.1-3.8-1c-.8-2.4 3-8 5-7.6 1.8.4 4.5 5.5 4.5 8 0 2.7-4.2 15.1-9.5 18.5-5.3 3.4-11.8 2-11-1.5.8-3.3 3.4-7.5 4.6-7.1 1.1.4 4.2 4.2 4.2 4.2s6.8-6.7 6-13.5ZM467.9 125.8v29.8a3 3 0 0 1-3 3H415a3 3 0 0 1-3-3v-29.8c0-.5.1-1 .3-1.4a3 3 0 0 1 2.7-1.6h49.9a3 3 0 0 1 2.7 1.6c.1.5.3.9.3 1.4Z" fill="#9AB6F4"/><path d="M467.6 124.4 440 143.3l-27.6-19a3 3 0 0 1 2.7-1.6h50c.9 0 2 .8 2.5 1.7Z" fill="#E2EBFC"/><path d="M105.2 125.8v29.8a3 3 0 0 1-3 3H52.3a3 3 0 0 1-3-3v-29.8c0-.5.1-1 .3-1.4a3 3 0 0 1 2.7-1.6h49.9a3 3 0 0 1 2.7 1.6c.1.5.3.9.3 1.4Z" fill="#9AB6F4"/><path d="m105 124.4-27.7 18.9-27.6-19a3 3 0 0 1 2.7-1.6h50c1 0 2 .8 2.5 1.7ZM29.3 55.8l-7-4c-.6-.2-1.1.4-1 1l3.1 7.6c.2.3 0 .6-.1.7l-8.8 8.6c-.3.2-1 0-1.1-.3L.5 27.4c-.1-.6.4-1.1 1-.9l37 20.1c.5.3.5.7.2 1l-8.6 8c-.2.4-.5.4-.8.2ZM424.5 77.4l7.5 3.1c.5.3 1-.4.8-1l-4-7.3c-.2-.2-.2-.5 0-.6l8-9.4c.2-.4.8-.3 1 .1l18.5 40.2c.3.5-.2 1-.8.8l-39.1-15.7c-.4-.2-.6-.7-.3-1l7.6-9c.3-.2.5-.2.8-.2Z" fill="#E2EBFC"/></g></g><defs><linearGradient id="paint0_linear_2_745" x1="56.9" y1="309.5" x2="145" y2="341.7" gradientUnits="userSpaceOnUse"><stop stop-color="#E7EFFC"/><stop offset="1" stop-color="#9CB5F6"/></linearGradient><linearGradient id="paint1_linear_2_745" x1="54" y1="270.8" x2="226.2" y2="333.6" gradientUnits="userSpaceOnUse"><stop stop-color="#E7EFFC"/><stop offset="1" stop-color="#9CB5F6"/></linearGradient><linearGradient id="paint2_linear_2_745" x1="77.2" y1="278.5" x2="192.1" y2="320.4" gradientUnits="userSpaceOnUse"><stop stop-color="#E7EFFC"/><stop offset="1" stop-color="#9CB5F6"/></linearGradient><linearGradient id="paint3_linear_2_745" x1="90.7" y1="239.7" x2="256.8" y2="300.3" gradientUnits="userSpaceOnUse"><stop stop-color="#E7EFFC"/><stop offset="1" stop-color="#9CB5F6"/></linearGradient><linearGradient id="paint4_linear_2_745" x1="115.1" y1="254.1" x2="238.6" y2="299.1" gradientUnits="userSpaceOnUse"><stop stop-color="#E7EFFC"/><stop offset="1" stop-color="#9CB5F6"/></linearGradient><linearGradient id="paint5_linear_2_745" x1="133.8" y1="226.6" x2="298.3" y2="286.6" gradientUnits="userSpaceOnUse"><stop stop-color="#E7EFFC"/><stop offset="1" stop-color="#9CB5F6"/></linearGradient><linearGradient id="paint6_linear_2_745" x1="157.2" y1="241.7" x2="282.7" y2="287.4" gradientUnits="userSpaceOnUse"><stop stop-color="#E7EFFC"/><stop offset="1" stop-color="#9CB5F6"/></linearGradient><linearGradient id="paint7_linear_2_745" x1="400.8" y1="324.8" x2="493.8" y2="324.8" gradientUnits="userSpaceOnUse"><stop stop-color="#9CB5F6"/><stop offset="1" stop-color="#E7EFFC"/></linearGradient><linearGradient id="paint8_linear_2_745" x1="322.5" y1="291.7" x2="487.8" y2="291.7" gradientUnits="userSpaceOnUse"><stop stop-color="#9CB5F6"/><stop offset="1" stop-color="#E7EFFC"/></linearGradient><linearGradient id="paint9_linear_2_745" x1="361.7" y1="299.4" x2="467.2" y2="299.4" gradientUnits="userSpaceOnUse"><stop stop-color="#9CB5F6"/><stop offset="1" stop-color="#E7EFFC"/></linearGradient><linearGradient id="paint10_linear_2_745" x1="304.1" y1="265.8" x2="442.6" y2="265.8" gradientUnits="userSpaceOnUse"><stop stop-color="#9CB5F6"/><stop offset="1" stop-color="#E7EFFC"/></linearGradient><linearGradient id="paint11_linear_2_745" x1="322.5" y1="276.5" x2="421.9" y2="276.5" gradientUnits="userSpaceOnUse"><stop stop-color="#9CB5F6"/><stop offset="1" stop-color="#E7EFFC"/></linearGradient><linearGradient id="paint12_linear_2_745" x1="267.6" y1="252.2" x2="395.3" y2="252.2" gradientUnits="userSpaceOnUse"><stop stop-color="#9CB5F6"/><stop offset="1" stop-color="#E7EFFC"/></linearGradient><linearGradient id="paint13_linear_2_745" x1="282.9" y1="264.5" x2="375.4" y2="264.5" gradientUnits="userSpaceOnUse"><stop stop-color="#9CB5F6"/><stop offset="1" stop-color="#E7EFFC"/></linearGradient><linearGradient id="paint14_linear_2_745" x1="322.9" y1="313.8" x2="374.1" y2="251.9" gradientUnits="userSpaceOnUse"><stop stop-color="#5E79F6"/><stop offset="1" stop-color="#98C0FC"/></linearGradient><linearGradient id="paint15_linear_2_745" x1="105.2" y1="317.5" x2="165.4" y2="317.5" gradientUnits="userSpaceOnUse"><stop stop-color="#5E79F6"/><stop offset="1" stop-color="#98C0FC"/></linearGradient><linearGradient id="paint16_linear_2_745" x1="243.5" y1="281.2" x2="215" y2="245.3" gradientUnits="userSpaceOnUse"><stop stop-color="#FA775E"/><stop offset="1" stop-color="#FFC484"/></linearGradient><linearGradient id="paint17_linear_2_745" x1="218.4" y1="188.2" x2="233.6" y2="188.2" gradientUnits="userSpaceOnUse"><stop stop-color="#EA425E"/><stop offset="1" stop-color="#FF866D"/></linearGradient><linearGradient id="paint18_linear_2_745" x1="333.7" y1="353.5" x2="256.5" y2="229.9" gradientUnits="userSpaceOnUse"><stop stop-color="#FA775E"/><stop offset="1" stop-color="#FFC484"/></linearGradient><linearGradient id="paint19_linear_2_745" x1="266.2" y1="148.2" x2="294" y2="148.2" gradientUnits="userSpaceOnUse"><stop stop-color="#4944A8"/><stop offset="1" stop-color="#302B92"/></linearGradient><linearGradient id="paint20_linear_2_745" x1="225.4" y1="172.1" x2="281.2" y2="172.1" gradientUnits="userSpaceOnUse"><stop stop-color="#4944A8"/><stop offset="1" stop-color="#302B92"/></linearGradient><linearGradient id="paint21_linear_2_745" x1="272.5" y1="209.2" x2="274.9" y2="234" gradientUnits="userSpaceOnUse"><stop stop-color="#F9C795"/><stop offset="1" stop-color="#FEE3C2"/></linearGradient><linearGradient id="paint22_linear_2_745" x1="289.1" y1="219.8" x2="251.9" y2="180" gradientUnits="userSpaceOnUse"><stop stop-color="#F9C795"/><stop offset="1" stop-color="#FEE3C2"/></linearGradient><linearGradient id="paint23_linear_2_745" x1="228.3" y1="210.7" x2="257.3" y2="210.7" gradientUnits="userSpaceOnUse"><stop stop-color="#EA425E"/><stop offset="1" stop-color="#FF866D"/></linearGradient><linearGradient id="paint24_linear_2_745" x1="230.2" y1="255.5" x2="198.9" y2="244.5" gradientUnits="userSpaceOnUse"><stop stop-color="#F9C795"/><stop offset="1" stop-color="#FEE3C2"/></linearGradient><linearGradient id="paint25_linear_2_745" x1="285.1" y1="319.7" x2="275.5" y2="301.7" gradientUnits="userSpaceOnUse"><stop stop-color="#F9C795"/><stop offset="1" stop-color="#FEE3C2"/></linearGradient><linearGradient id="paint26_linear_2_745" x1="340.3" y1="270.6" x2="302.6" y2="262.2" gradientUnits="userSpaceOnUse"><stop stop-color="#FA775E"/><stop offset="1" stop-color="#FFC484"/></linearGradient><clipPath id="clip0_2_745"><path fill="#fff" d="M.5.5h503v342H.5z"/></clipPath></defs></svg>